<svg xmlns="http://www.w3.org/2000/svg" xmlns:xlink="http://www.w3.org/1999/xlink" width="1920" zoomAndPan="magnify" viewBox="0 0 1440 809.999993" height="1080" preserveAspectRatio="xMidYMid meet" version="1.0"><defs><filter x="0%" y="0%" width="100%" height="100%" id="9d708d2307"><feColorMatrix values="0 0 0 0 1 0 0 0 0 1 0 0 0 0 1 0 0 0 1 0" color-interpolation-filters="sRGB"/></filter><mask id="e87e99940b"><g filter="url(#9d708d2307)"><rect x="-144" width="1728" fill="#000000" y="-80.999999" height="971.999992" fill-opacity="0.07"/></g></mask><clipPath id="293033ed44"><path d="M 0.894531 0.855469 L 228.894531 0.855469 L 228.894531 219.105469 L 0.894531 219.105469 Z M 0.894531 0.855469 " clip-rule="nonzero"/></clipPath><clipPath id="268f5829f4"><rect x="0" width="230" y="0" height="220"/></clipPath><mask id="4c3dec2750"><g filter="url(#9d708d2307)"><rect x="-144" width="1728" fill="#000000" y="-80.999999" height="971.999992" fill-opacity="0.07"/></g></mask><clipPath id="200d75aff4"><path d="M 0 18 L 287 18 L 287 240 L 0 240 Z M 0 18 " clip-rule="nonzero"/></clipPath><clipPath id="0430099cb8"><path d="M 0 2.328125 L 371 2.328125 L 371 255.828125 L 0 255.828125 Z M 0 2.328125 " clip-rule="nonzero"/></clipPath><clipPath id="90a5dcf1ed"><rect x="0" width="373" y="0" height="257"/></clipPath><clipPath id="f43ae92739"><path d="M 288 330.675781 L 410 330.675781 L 410 478 L 288 478 Z M 288 330.675781 " clip-rule="nonzero"/></clipPath><clipPath id="098c6f84df"><path d="M 348.53125 477.640625 C 381.957031 477.640625 409.046875 459.269531 409.046875 427.121094 C 409.046875 413.34375 404.003906 390.382812 383.832031 372.011719 C 386.351562 385.789062 371.222656 390.382812 371.222656 390.382812 C 378.789062 367.417969 358.617188 335.269531 328.355469 330.675781 C 331.957031 349.046875 333.398438 367.417969 308.183594 385.789062 C 295.578125 394.972656 288.011719 410.855469 288.011719 427.121094 C 288.011719 459.269531 315.105469 477.640625 348.53125 477.640625 Z M 348.53125 468.457031 C 331.816406 468.457031 318.269531 459.269531 318.269531 443.195312 C 318.269531 436.308594 320.792969 424.828125 330.878906 415.640625 C 329.617188 422.53125 338.441406 427.121094 338.441406 427.121094 C 334.660156 415.640625 343.484375 397.269531 358.617188 394.972656 C 356.808594 404.160156 356.09375 413.34375 368.703125 422.53125 C 375.003906 427.121094 378.789062 435.058594 378.789062 443.195312 C 378.789062 459.269531 365.242188 468.457031 348.53125 468.457031 Z M 348.53125 468.457031 " clip-rule="nonzero"/></clipPath><linearGradient x1="19.542999" gradientTransform="matrix(3.09668, 0, 0, 3.09375, 288.011994, 330.677227)" y1="0.00000110603" x2="19.542999" gradientUnits="userSpaceOnUse" y2="47.503798" id="c6973f4713"><stop stop-opacity="1" stop-color="rgb(87.098694%, 71.398926%, 31.399536%)" offset="0"/><stop stop-opacity="1" stop-color="rgb(87.147522%, 71.235657%, 31.27594%)" offset="0.0078125"/><stop stop-opacity="1" stop-color="rgb(87.245178%, 70.910645%, 31.030273%)" offset="0.015625"/><stop stop-opacity="1" stop-color="rgb(87.342834%, 70.585632%, 30.786133%)" offset="0.0234375"/><stop stop-opacity="1" stop-color="rgb(87.440491%, 70.26062%, 30.540466%)" offset="0.03125"/><stop stop-opacity="1" stop-color="rgb(87.538147%, 69.935608%, 30.2948%)" offset="0.0390625"/><stop stop-opacity="1" stop-color="rgb(87.635803%, 69.610596%, 30.049133%)" offset="0.046875"/><stop stop-opacity="1" stop-color="rgb(87.733459%, 69.285583%, 29.803467%)" offset="0.0546875"/><stop stop-opacity="1" stop-color="rgb(87.831116%, 68.960571%, 29.559326%)" offset="0.0625"/><stop stop-opacity="1" stop-color="rgb(87.928772%, 68.635559%, 29.31366%)" offset="0.0703125"/><stop stop-opacity="1" stop-color="rgb(88.026428%, 68.310547%, 29.067993%)" offset="0.078125"/><stop stop-opacity="1" stop-color="rgb(88.124084%, 67.985535%, 28.822327%)" offset="0.0859375"/><stop stop-opacity="1" stop-color="rgb(88.221741%, 67.660522%, 28.578186%)" offset="0.09375"/><stop stop-opacity="1" stop-color="rgb(88.319397%, 67.33551%, 28.33252%)" offset="0.101563"/><stop stop-opacity="1" stop-color="rgb(88.417053%, 67.010498%, 28.086853%)" offset="0.109375"/><stop stop-opacity="1" stop-color="rgb(88.514709%, 66.685486%, 27.841187%)" offset="0.117188"/><stop stop-opacity="1" stop-color="rgb(88.612366%, 66.360474%, 27.597046%)" offset="0.125"/><stop stop-opacity="1" stop-color="rgb(88.710022%, 66.035461%, 27.351379%)" offset="0.132813"/><stop stop-opacity="1" stop-color="rgb(88.807678%, 65.710449%, 27.105713%)" offset="0.140625"/><stop stop-opacity="1" stop-color="rgb(88.905334%, 65.385437%, 26.860046%)" offset="0.148438"/><stop stop-opacity="1" stop-color="rgb(89.002991%, 65.060425%, 26.61438%)" offset="0.15625"/><stop stop-opacity="1" stop-color="rgb(89.100647%, 64.735413%, 26.370239%)" offset="0.164062"/><stop stop-opacity="1" stop-color="rgb(89.198303%, 64.4104%, 26.124573%)" offset="0.171875"/><stop stop-opacity="1" stop-color="rgb(89.295959%, 64.085388%, 25.878906%)" offset="0.179688"/><stop stop-opacity="1" stop-color="rgb(89.393616%, 63.760376%, 25.63324%)" offset="0.1875"/><stop stop-opacity="1" stop-color="rgb(89.491272%, 63.435364%, 25.389099%)" offset="0.195313"/><stop stop-opacity="1" stop-color="rgb(89.588928%, 63.110352%, 25.143433%)" offset="0.203125"/><stop stop-opacity="1" stop-color="rgb(89.686584%, 62.785339%, 24.897766%)" offset="0.210938"/><stop stop-opacity="1" stop-color="rgb(89.784241%, 62.460327%, 24.6521%)" offset="0.21875"/><stop stop-opacity="1" stop-color="rgb(89.881897%, 62.135315%, 24.407959%)" offset="0.226562"/><stop stop-opacity="1" stop-color="rgb(89.979553%, 61.810303%, 24.162292%)" offset="0.234375"/><stop stop-opacity="1" stop-color="rgb(90.077209%, 61.485291%, 23.916626%)" offset="0.242188"/><stop stop-opacity="1" stop-color="rgb(90.174866%, 61.160278%, 23.670959%)" offset="0.25"/><stop stop-opacity="1" stop-color="rgb(90.272522%, 60.835266%, 23.425293%)" offset="0.257813"/><stop stop-opacity="1" stop-color="rgb(90.370178%, 60.51178%, 23.181152%)" offset="0.265625"/><stop stop-opacity="1" stop-color="rgb(90.467834%, 60.186768%, 22.935486%)" offset="0.273438"/><stop stop-opacity="1" stop-color="rgb(90.565491%, 59.861755%, 22.689819%)" offset="0.28125"/><stop stop-opacity="1" stop-color="rgb(90.663147%, 59.536743%, 22.444153%)" offset="0.289062"/><stop stop-opacity="1" stop-color="rgb(90.760803%, 59.211731%, 22.200012%)" offset="0.296875"/><stop stop-opacity="1" stop-color="rgb(90.858459%, 58.886719%, 21.954346%)" offset="0.304688"/><stop stop-opacity="1" stop-color="rgb(90.956116%, 58.561707%, 21.708679%)" offset="0.3125"/><stop stop-opacity="1" stop-color="rgb(91.053772%, 58.236694%, 21.463013%)" offset="0.320312"/><stop stop-opacity="1" stop-color="rgb(91.151428%, 57.911682%, 21.218872%)" offset="0.328125"/><stop stop-opacity="1" stop-color="rgb(91.249084%, 57.58667%, 20.973206%)" offset="0.335937"/><stop stop-opacity="1" stop-color="rgb(91.346741%, 57.261658%, 20.727539%)" offset="0.34375"/><stop stop-opacity="1" stop-color="rgb(91.444397%, 56.936646%, 20.481873%)" offset="0.351563"/><stop stop-opacity="1" stop-color="rgb(91.542053%, 56.611633%, 20.237732%)" offset="0.359375"/><stop stop-opacity="1" stop-color="rgb(91.639709%, 56.286621%, 19.992065%)" offset="0.367188"/><stop stop-opacity="1" stop-color="rgb(91.737366%, 55.961609%, 19.746399%)" offset="0.375"/><stop stop-opacity="1" stop-color="rgb(91.835022%, 55.636597%, 19.500732%)" offset="0.382812"/><stop stop-opacity="1" stop-color="rgb(91.932678%, 55.311584%, 19.255066%)" offset="0.390625"/><stop stop-opacity="1" stop-color="rgb(92.030334%, 54.986572%, 19.010925%)" offset="0.398438"/><stop stop-opacity="1" stop-color="rgb(92.127991%, 54.66156%, 18.765259%)" offset="0.40625"/><stop stop-opacity="1" stop-color="rgb(92.225647%, 54.336548%, 18.519592%)" offset="0.414062"/><stop stop-opacity="1" stop-color="rgb(92.323303%, 54.011536%, 18.273926%)" offset="0.421875"/><stop stop-opacity="1" stop-color="rgb(92.420959%, 53.686523%, 18.029785%)" offset="0.429687"/><stop stop-opacity="1" stop-color="rgb(92.518616%, 53.361511%, 17.784119%)" offset="0.4375"/><stop stop-opacity="1" stop-color="rgb(92.616272%, 53.036499%, 17.538452%)" offset="0.445313"/><stop stop-opacity="1" stop-color="rgb(92.713928%, 52.711487%, 17.292786%)" offset="0.453125"/><stop stop-opacity="1" stop-color="rgb(92.811584%, 52.386475%, 17.048645%)" offset="0.460938"/><stop stop-opacity="1" stop-color="rgb(92.909241%, 52.061462%, 16.802979%)" offset="0.46875"/><stop stop-opacity="1" stop-color="rgb(93.006897%, 51.73645%, 16.557312%)" offset="0.476562"/><stop stop-opacity="1" stop-color="rgb(93.104553%, 51.411438%, 16.311646%)" offset="0.484375"/><stop stop-opacity="1" stop-color="rgb(93.202209%, 51.086426%, 16.065979%)" offset="0.492188"/><stop stop-opacity="1" stop-color="rgb(93.299866%, 50.761414%, 15.821838%)" offset="0.5"/><stop stop-opacity="1" stop-color="rgb(93.397522%, 50.436401%, 15.576172%)" offset="0.507813"/><stop stop-opacity="1" stop-color="rgb(93.495178%, 50.111389%, 15.330505%)" offset="0.515625"/><stop stop-opacity="1" stop-color="rgb(93.592834%, 49.786377%, 15.084839%)" offset="0.523438"/><stop stop-opacity="1" stop-color="rgb(93.690491%, 49.461365%, 14.840698%)" offset="0.53125"/><stop stop-opacity="1" stop-color="rgb(93.788147%, 49.136353%, 14.595032%)" offset="0.539063"/><stop stop-opacity="1" stop-color="rgb(93.885803%, 48.81134%, 14.349365%)" offset="0.546875"/><stop stop-opacity="1" stop-color="rgb(93.983459%, 48.486328%, 14.103699%)" offset="0.554688"/><stop stop-opacity="1" stop-color="rgb(94.081116%, 48.161316%, 13.859558%)" offset="0.5625"/><stop stop-opacity="1" stop-color="rgb(94.178772%, 47.836304%, 13.613892%)" offset="0.570312"/><stop stop-opacity="1" stop-color="rgb(94.276428%, 47.511292%, 13.368225%)" offset="0.578125"/><stop stop-opacity="1" stop-color="rgb(94.374084%, 47.186279%, 13.122559%)" offset="0.585938"/><stop stop-opacity="1" stop-color="rgb(94.471741%, 46.861267%, 12.876892%)" offset="0.59375"/><stop stop-opacity="1" stop-color="rgb(94.569397%, 46.536255%, 12.632751%)" offset="0.601562"/><stop stop-opacity="1" stop-color="rgb(94.667053%, 46.211243%, 12.387085%)" offset="0.609375"/><stop stop-opacity="1" stop-color="rgb(94.764709%, 45.88623%, 12.141418%)" offset="0.617188"/><stop stop-opacity="1" stop-color="rgb(94.862366%, 45.561218%, 11.895752%)" offset="0.625"/><stop stop-opacity="1" stop-color="rgb(94.960022%, 45.236206%, 11.651611%)" offset="0.632812"/><stop stop-opacity="1" stop-color="rgb(95.057678%, 44.911194%, 11.405945%)" offset="0.640625"/><stop stop-opacity="1" stop-color="rgb(95.155334%, 44.586182%, 11.160278%)" offset="0.648438"/><stop stop-opacity="1" stop-color="rgb(95.252991%, 44.261169%, 10.914612%)" offset="0.65625"/><stop stop-opacity="1" stop-color="rgb(95.350647%, 43.936157%, 10.670471%)" offset="0.664062"/><stop stop-opacity="1" stop-color="rgb(95.448303%, 43.611145%, 10.424805%)" offset="0.671875"/><stop stop-opacity="1" stop-color="rgb(95.545959%, 43.286133%, 10.179138%)" offset="0.679687"/><stop stop-opacity="1" stop-color="rgb(95.643616%, 42.961121%, 9.933472%)" offset="0.6875"/><stop stop-opacity="1" stop-color="rgb(95.741272%, 42.636108%, 9.689331%)" offset="0.695313"/><stop stop-opacity="1" stop-color="rgb(95.838928%, 42.311096%, 9.443665%)" offset="0.703125"/><stop stop-opacity="1" stop-color="rgb(95.936584%, 41.986084%, 9.197998%)" offset="0.710938"/><stop stop-opacity="1" stop-color="rgb(96.034241%, 41.661072%, 8.952332%)" offset="0.71875"/><stop stop-opacity="1" stop-color="rgb(96.131897%, 41.33606%, 8.706665%)" offset="0.726563"/><stop stop-opacity="1" stop-color="rgb(96.229553%, 41.011047%, 8.462524%)" offset="0.734375"/><stop stop-opacity="1" stop-color="rgb(96.327209%, 40.686035%, 8.216858%)" offset="0.742188"/><stop stop-opacity="1" stop-color="rgb(96.424866%, 40.361023%, 7.971191%)" offset="0.75"/><stop stop-opacity="1" stop-color="rgb(96.522522%, 40.036011%, 7.725525%)" offset="0.757812"/><stop stop-opacity="1" stop-color="rgb(96.620178%, 39.710999%, 7.481384%)" offset="0.765625"/><stop stop-opacity="1" stop-color="rgb(96.717834%, 39.385986%, 7.235718%)" offset="0.773438"/><stop stop-opacity="1" stop-color="rgb(96.815491%, 39.060974%, 6.990051%)" offset="0.78125"/><stop stop-opacity="1" stop-color="rgb(96.913147%, 38.735962%, 6.744385%)" offset="0.789062"/><stop stop-opacity="1" stop-color="rgb(97.010803%, 38.41095%, 6.500244%)" offset="0.796875"/><stop stop-opacity="1" stop-color="rgb(97.108459%, 38.085938%, 6.254578%)" offset="0.804688"/><stop stop-opacity="1" stop-color="rgb(97.206116%, 37.760925%, 6.008911%)" offset="0.8125"/><stop stop-opacity="1" stop-color="rgb(97.303772%, 37.435913%, 5.763245%)" offset="0.820312"/><stop stop-opacity="1" stop-color="rgb(97.401428%, 37.110901%, 5.517578%)" offset="0.828125"/><stop stop-opacity="1" stop-color="rgb(97.499084%, 36.785889%, 5.273438%)" offset="0.835938"/><stop stop-opacity="1" stop-color="rgb(97.596741%, 36.460876%, 5.027771%)" offset="0.84375"/><stop stop-opacity="1" stop-color="rgb(97.694397%, 36.135864%, 4.782104%)" offset="0.851562"/><stop stop-opacity="1" stop-color="rgb(97.792053%, 35.810852%, 4.536438%)" offset="0.859375"/><stop stop-opacity="1" stop-color="rgb(97.889709%, 35.48584%, 4.292297%)" offset="0.867187"/><stop stop-opacity="1" stop-color="rgb(97.987366%, 35.160828%, 4.046631%)" offset="0.875"/><stop stop-opacity="1" stop-color="rgb(98.085022%, 34.835815%, 3.800964%)" offset="0.882813"/><stop stop-opacity="1" stop-color="rgb(98.182678%, 34.510803%, 3.555298%)" offset="0.890625"/><stop stop-opacity="1" stop-color="rgb(98.280334%, 34.185791%, 3.311157%)" offset="0.898438"/><stop stop-opacity="1" stop-color="rgb(98.377991%, 33.860779%, 3.065491%)" offset="0.90625"/><stop stop-opacity="1" stop-color="rgb(98.475647%, 33.535767%, 2.819824%)" offset="0.914063"/><stop stop-opacity="1" stop-color="rgb(98.573303%, 33.210754%, 2.574158%)" offset="0.921875"/><stop stop-opacity="1" stop-color="rgb(98.670959%, 32.885742%, 2.328491%)" offset="0.929688"/><stop stop-opacity="1" stop-color="rgb(98.768616%, 32.56073%, 2.084351%)" offset="0.9375"/><stop stop-opacity="1" stop-color="rgb(98.866272%, 32.235718%, 1.838684%)" offset="0.945313"/><stop stop-opacity="1" stop-color="rgb(98.963928%, 31.910706%, 1.593018%)" offset="0.953125"/><stop stop-opacity="1" stop-color="rgb(99.061584%, 31.585693%, 1.347351%)" offset="0.960938"/><stop stop-opacity="1" stop-color="rgb(99.159241%, 31.260681%, 1.10321%)" offset="0.96875"/><stop stop-opacity="1" stop-color="rgb(99.256897%, 30.935669%, 0.857544%)" offset="0.976562"/><stop stop-opacity="1" stop-color="rgb(99.354553%, 30.610657%, 0.611877%)" offset="0.984375"/><stop stop-opacity="1" stop-color="rgb(99.452209%, 30.285645%, 0.366211%)" offset="0.992188"/><stop stop-opacity="1" stop-color="rgb(99.549866%, 29.960632%, 0.12207%)" offset="1"/></linearGradient></defs><rect x="-144" width="1728" fill="#ffffff" y="-80.999999" height="971.999992" fill-opacity="1"/><rect x="-144" width="1728" fill="#000002" y="-80.999999" height="971.999992" fill-opacity="1"/><g mask="url(#e87e99940b)"><g transform="matrix(1, 0, 0, 1, 1181, 24)"><g clip-path="url(#268f5829f4)"><g clip-path="url(#293033ed44)"><path fill="#ffffff" d="M 110.042969 6.199219 C 134.117188 6.199219 157.578125 14.621094 176.113281 29.917969 C 176.585938 30.308594 177.179688 30.523438 177.796875 30.523438 L 201.601562 30.523438 C 202.5625 32.398438 204.515625 33.6875 206.773438 33.6875 C 209.980469 33.6875 212.582031 31.085938 212.582031 27.878906 C 212.582031 24.671875 209.980469 22.070312 206.773438 22.070312 C 204.515625 22.070312 202.5625 23.359375 201.601562 25.238281 L 178.738281 25.238281 C 169.355469 17.628906 158.875 11.675781 147.574219 7.539062 C 135.570312 3.140625 122.941406 0.914062 110.042969 0.914062 C 95.308594 0.914062 81.011719 3.800781 67.554688 9.492188 C 54.554688 14.992188 42.882812 22.863281 32.859375 32.882812 C 22.835938 42.910156 14.964844 54.582031 9.46875 67.578125 C 3.773438 81.039062 0.886719 95.332031 0.886719 110.070312 C 0.886719 124.804688 3.773438 139.101562 9.46875 152.558594 C 14.964844 165.554688 22.835938 177.230469 32.859375 187.253906 C 42.882812 197.277344 54.554688 205.148438 67.554688 210.644531 C 81.011719 216.339844 95.308594 219.222656 110.042969 219.222656 C 122.566406 219.222656 134.847656 217.121094 146.542969 212.972656 C 157.554688 209.066406 167.824219 203.433594 177.074219 196.226562 L 196.847656 196.226562 C 197.769531 198.222656 199.785156 199.613281 202.128906 199.613281 C 205.335938 199.613281 207.933594 197.011719 207.933594 193.804688 C 207.933594 190.597656 205.335938 187.996094 202.128906 187.996094 C 199.960938 187.996094 198.074219 189.179688 197.074219 190.941406 L 176.160156 190.941406 C 175.566406 190.941406 174.984375 191.140625 174.519531 191.511719 C 156.011719 206.183594 133.714844 213.9375 110.042969 213.9375 C 52.769531 213.9375 6.171875 167.34375 6.171875 110.070312 C 6.171875 52.796875 52.769531 6.199219 110.042969 6.199219 Z M 223.167969 54.65625 C 226.4375 54.65625 229.089844 52.003906 229.089844 48.734375 C 229.089844 45.464844 226.4375 42.8125 223.167969 42.8125 C 220.941406 42.8125 219 44.042969 217.992188 45.863281 L 132.332031 45.863281 C 132.257812 45.785156 132.203125 45.691406 132.179688 45.582031 L 129.574219 34.421875 C 128.886719 31.46875 127.199219 28.804688 124.824219 26.917969 C 122.449219 25.035156 119.472656 23.996094 116.441406 23.996094 L 103.394531 23.996094 C 100.363281 23.996094 97.382812 25.035156 95.007812 26.917969 C 92.632812 28.804688 90.945312 31.46875 90.257812 34.421875 L 87.652344 45.582031 C 87.605469 45.792969 87.453125 45.957031 87.242188 46.035156 C 85.117188 46.789062 83.011719 47.660156 80.980469 48.628906 C 80.777344 48.726562 80.550781 48.714844 80.367188 48.601562 L 70.632812 42.550781 C 68.058594 40.949219 64.980469 40.257812 61.96875 40.605469 C 58.957031 40.953125 56.117188 42.324219 53.972656 44.46875 L 44.75 53.691406 C 42.605469 55.835938 41.234375 58.675781 40.886719 61.6875 C 40.539062 64.699219 41.230469 67.777344 42.832031 70.351562 L 48.882812 80.085938 C 48.996094 80.269531 49.007812 80.496094 48.90625 80.703125 C 47.941406 82.734375 47.070312 84.839844 46.3125 86.960938 C 46.238281 87.175781 46.074219 87.324219 45.859375 87.371094 L 34.703125 89.976562 C 31.75 90.664062 29.085938 92.351562 27.199219 94.726562 C 25.316406 97.101562 24.277344 100.082031 24.277344 103.113281 L 24.277344 117.320312 C 24.277344 119.621094 25.066406 121.882812 26.496094 123.6875 C 27.929688 125.492188 29.953125 126.773438 32.195312 127.296875 L 43.855469 130.015625 C 45.355469 130.367188 46.5625 131.445312 47.082031 132.902344 C 47.828125 135 48.691406 137.082031 49.640625 139.085938 C 50.308594 140.488281 50.222656 142.105469 49.40625 143.414062 L 43.085938 153.585938 C 41.867188 155.542969 41.34375 157.878906 41.609375 160.164062 C 41.871094 162.453125 42.914062 164.613281 44.539062 166.238281 L 54.179688 175.878906 C 55.808594 177.503906 57.964844 178.546875 60.253906 178.8125 C 62.539062 179.074219 64.878906 178.550781 66.832031 177.335938 L 77.003906 171.011719 C 78.3125 170.199219 79.933594 170.109375 81.335938 170.777344 C 83.339844 171.726562 85.421875 172.59375 87.515625 173.339844 C 88.976562 173.859375 90.054688 175.066406 90.402344 176.5625 L 93.125 188.226562 C 93.648438 190.46875 94.929688 192.492188 96.730469 193.921875 C 98.535156 195.351562 100.796875 196.140625 103.101562 196.140625 L 116.734375 196.140625 C 119.035156 196.140625 121.296875 195.351562 123.101562 193.921875 C 124.902344 192.492188 126.1875 190.46875 126.710938 188.226562 L 129.429688 176.5625 C 129.78125 175.066406 130.859375 173.859375 132.316406 173.339844 C 134.414062 172.59375 136.492188 171.726562 138.496094 170.777344 C 139.902344 170.109375 141.519531 170.199219 142.828125 171.011719 L 153 177.335938 C 154.953125 178.550781 157.292969 179.074219 159.578125 178.8125 C 161.867188 178.546875 164.023438 177.503906 165.652344 175.878906 L 175.289062 166.238281 C 176.917969 164.613281 177.960938 162.453125 178.226562 160.164062 C 178.488281 157.878906 177.964844 155.542969 176.75 153.585938 L 173.175781 147.839844 L 214.511719 147.839844 C 215.523438 149.660156 217.464844 150.890625 219.691406 150.890625 C 222.964844 150.890625 225.613281 148.238281 225.613281 144.96875 C 225.613281 141.699219 222.964844 139.046875 219.691406 139.046875 C 217.464844 139.046875 215.523438 140.28125 214.511719 142.101562 L 167.898438 142.101562 C 166.3125 142.101562 165.03125 143.382812 165.03125 144.96875 C 165.03125 145.796875 165.378906 146.539062 165.9375 147.0625 L 171.878906 156.613281 C 172.988281 158.402344 172.726562 160.691406 171.238281 162.179688 L 161.59375 171.820312 C 160.105469 173.308594 157.816406 173.574219 156.027344 172.460938 L 145.855469 166.140625 C 142.882812 164.289062 139.210938 164.089844 136.035156 165.59375 C 134.207031 166.464844 132.304688 167.253906 130.390625 167.9375 C 127.085938 169.113281 124.636719 171.851562 123.84375 175.261719 L 121.121094 186.921875 C 120.644531 188.972656 118.839844 190.402344 116.734375 190.402344 L 103.101562 190.402344 C 100.996094 190.402344 99.1875 188.972656 98.710938 186.921875 L 95.988281 175.261719 C 95.195312 171.851562 92.746094 169.113281 89.445312 167.9375 C 87.527344 167.253906 85.628906 166.464844 83.796875 165.59375 C 80.621094 164.089844 76.949219 164.289062 73.976562 166.140625 L 63.804688 172.460938 C 62.015625 173.574219 59.726562 173.308594 58.238281 171.820312 L 48.597656 162.179688 C 47.109375 160.691406 46.84375 158.402344 47.957031 156.613281 L 54.28125 146.445312 C 56.128906 143.46875 56.332031 139.796875 54.824219 136.621094 C 53.953125 134.789062 53.167969 132.890625 52.484375 130.976562 C 51.304688 127.671875 48.566406 125.226562 45.160156 124.429688 L 33.5 121.707031 C 31.449219 121.230469 30.015625 119.425781 30.015625 117.320312 L 30.015625 113.371094 L 30.035156 109.808594 C 30.023438 109.75 30.015625 109.695312 30.015625 109.636719 L 30.015625 103.113281 C 30.015625 101.371094 30.613281 99.65625 31.695312 98.292969 C 32.777344 96.929688 34.308594 95.960938 36.003906 95.5625 L 47.164062 92.957031 C 49.28125 92.464844 50.984375 90.945312 51.714844 88.890625 C 52.410156 86.949219 53.207031 85.019531 54.089844 83.164062 C 55.027344 81.1875 54.902344 78.90625 53.753906 77.058594 L 47.703125 67.324219 C 46.78125 65.84375 46.386719 64.074219 46.585938 62.34375 C 46.785156 60.613281 47.574219 58.980469 48.804688 57.746094 L 58.03125 48.523438 C 59.261719 47.292969 60.894531 46.503906 62.625 46.304688 C 64.355469 46.105469 66.125 46.503906 67.605469 47.421875 L 77.339844 53.472656 C 79.1875 54.621094 81.46875 54.746094 83.445312 53.808594 C 85.300781 52.925781 87.226562 52.128906 89.167969 51.4375 C 91.222656 50.703125 92.746094 49 93.238281 46.882812 L 95.84375 35.722656 C 96.238281 34.027344 97.210938 32.496094 98.574219 31.414062 C 99.941406 30.332031 101.652344 29.734375 103.394531 29.734375 L 116.441406 29.734375 C 118.179688 29.734375 119.894531 30.332031 121.257812 31.414062 C 122.621094 32.496094 123.59375 34.027344 123.988281 35.722656 L 126.59375 46.882812 C 127.082031 48.972656 128.570312 50.65625 130.582031 51.40625 C 130.90625 51.53125 131.257812 51.601562 131.625 51.601562 L 217.992188 51.601562 C 219 53.421875 220.941406 54.65625 223.167969 54.65625 Z M 68.695312 111.789062 C 68.695312 134.523438 87.1875 153.015625 109.917969 153.015625 C 132.648438 153.015625 151.136719 134.523438 151.136719 111.789062 C 151.136719 110.207031 152.421875 108.925781 154.007812 108.925781 L 205.457031 108.925781 C 206.46875 107.101562 208.40625 105.871094 210.632812 105.871094 C 213.90625 105.871094 216.554688 108.523438 216.554688 111.789062 C 216.554688 115.0625 213.90625 117.710938 210.632812 117.710938 C 208.40625 117.710938 206.46875 116.480469 205.457031 114.660156 L 156.789062 114.660156 C 156.472656 119.988281 155.261719 125.15625 153.183594 130.070312 C 150.820312 135.664062 147.429688 140.683594 143.121094 144.996094 C 138.808594 149.308594 133.785156 152.695312 128.195312 155.058594 C 122.40625 157.507812 116.253906 158.75 109.917969 158.75 C 103.578125 158.75 97.429688 157.507812 91.636719 155.058594 C 86.042969 152.695312 81.023438 149.308594 76.710938 144.996094 C 72.398438 140.683594 69.015625 135.664062 66.648438 130.070312 C 64.199219 124.28125 62.957031 118.128906 62.957031 111.789062 C 62.957031 105.453125 64.199219 99.304688 66.648438 93.515625 C 69.015625 87.921875 72.398438 82.898438 76.710938 78.589844 C 81.023438 74.277344 86.042969 70.890625 91.636719 68.523438 C 97.429688 66.074219 103.578125 64.832031 109.917969 64.832031 C 116.355469 64.832031 122.589844 66.113281 128.457031 68.636719 C 133.664062 70.875 138.359375 73.996094 142.445312 77.925781 L 187.835938 77.925781 C 188.847656 76.105469 190.789062 74.871094 193.019531 74.871094 C 196.289062 74.871094 198.9375 77.523438 198.9375 80.792969 C 198.9375 84.0625 196.289062 86.714844 193.019531 86.714844 C 190.789062 86.714844 188.847656 85.480469 187.835938 83.664062 L 141.21875 83.664062 C 140.269531 83.664062 139.425781 83.199219 138.902344 82.484375 C 131.136719 74.792969 120.871094 70.570312 109.917969 70.570312 C 87.1875 70.570312 68.695312 89.0625 68.695312 111.789062 " fill-opacity="1" fill-rule="nonzero"/></g></g></g></g><g mask="url(#4c3dec2750)"><g transform="matrix(1, 0, 0, 1, 0, 529)"><g clip-path="url(#90a5dcf1ed)"><g clip-path="url(#200d75aff4)"><path fill="#ffffff" d="M 125 22.179688 L 81.015625 22.179688 L 81.015625 18.613281 L 125 18.613281 Z M 162.328125 70.921875 L 125 70.921875 L 125 74.488281 L 162.328125 74.488281 Z M 225.332031 70.921875 L 196.921875 70.921875 L 196.921875 74.488281 L 225.332031 74.488281 Z M 45.199219 182.179688 L 82.203125 182.179688 L 82.203125 178.613281 L 45.199219 178.613281 Z M 115.492188 182.667969 L 152.390625 182.667969 L 152.390625 179.101562 L 115.492188 179.101562 Z M 68.972656 75.046875 L 105.980469 75.046875 L 105.980469 71.480469 L 68.972656 71.480469 Z M 115.085938 143.234375 L 104.386719 164.632812 L 107.574219 166.226562 L 118.273438 144.828125 Z M 112.210938 190.738281 L 178.78125 229.96875 L 180.589844 226.902344 L 114.015625 187.671875 Z M 60.082031 57.890625 L 70.78125 30.550781 L 67.464844 29.253906 L 56.765625 56.597656 Z M 234.332031 118.898438 L 192.726562 83.238281 L 190.40625 85.945312 L 232.015625 121.609375 Z M -24.191406 128.613281 L 8.5 128.613281 L 8.5 125.046875 L -24.191406 125.046875 Z M 231.398438 125.046875 L 186.222656 125.046875 L 186.222656 128.613281 L 231.398438 128.613281 Z M 249.226562 125.605469 L 249.226562 129.171875 L 286.082031 129.171875 L 286.082031 125.605469 Z M 141.050781 239.324219 L 178.496094 239.324219 L 178.496094 235.757812 L 141.050781 235.757812 Z M 211.1875 239.324219 L 248.632812 239.324219 L 248.632812 235.757812 L 211.1875 235.757812 Z M 61.996094 19.089844 L 25.523438 19.089844 L 25.523438 22.65625 L 61.984375 22.65625 L 61.984375 19.089844 Z M 61.996094 19.089844 " fill-opacity="1" fill-rule="nonzero"/></g><g clip-path="url(#0430099cb8)"><path fill="#ffffff" d="M 365.503906 60.136719 C 361.996094 56.632812 357.335938 54.707031 352.390625 54.707031 L 242.691406 54.707031 C 237.734375 54.707031 233.074219 56.632812 229.578125 60.136719 C 222.351562 67.367188 222.351562 79.136719 229.578125 86.363281 C 233.085938 89.871094 237.734375 91.796875 242.691406 91.796875 L 352.390625 91.796875 C 357.347656 91.796875 362.007812 89.871094 365.503906 86.363281 C 372.730469 79.136719 372.730469 67.378906 365.503906 60.136719 Z M 362.984375 83.855469 C 360.152344 86.683594 356.398438 88.242188 352.390625 88.242188 L 242.691406 88.242188 C 238.683594 88.242188 234.925781 86.683594 232.097656 83.855469 C 226.261719 78.019531 226.261719 68.507812 232.097656 62.671875 C 234.925781 59.839844 238.683594 58.285156 242.691406 58.285156 L 352.390625 58.285156 C 356.398438 58.285156 360.152344 59.839844 362.984375 62.671875 C 368.820312 68.507812 368.820312 78.007812 362.984375 83.855469 Z M 51.734375 91.808594 C 61.960938 91.808594 70.28125 83.484375 70.28125 73.261719 C 70.28125 63.039062 61.960938 54.71875 51.734375 54.71875 C 41.511719 54.71875 33.191406 63.039062 33.191406 73.261719 C 33.191406 83.484375 41.511719 91.808594 51.734375 91.808594 Z M 51.734375 58.273438 C 60 58.273438 66.714844 64.988281 66.714844 73.25 C 66.714844 81.511719 60 88.230469 51.734375 88.230469 C 43.472656 88.230469 36.757812 81.511719 36.757812 73.25 C 36.757812 65 43.472656 58.273438 51.734375 58.273438 Z M 115.359375 84.425781 C 121.515625 84.425781 126.535156 79.410156 126.535156 73.25 C 126.535156 67.09375 121.515625 62.078125 115.359375 62.078125 C 109.203125 62.078125 104.183594 67.09375 104.183594 73.25 C 104.183594 79.410156 109.203125 84.425781 115.359375 84.425781 Z M 115.359375 65.65625 C 119.554688 65.65625 122.96875 69.066406 122.96875 73.261719 C 122.96875 77.460938 119.554688 80.871094 115.359375 80.871094 C 111.164062 80.871094 107.75 77.460938 107.75 73.261719 C 107.75 69.066406 111.164062 65.65625 115.359375 65.65625 Z M 160.425781 73.261719 C 160.425781 83.484375 168.746094 91.808594 178.972656 91.808594 C 189.195312 91.808594 197.515625 83.484375 197.515625 73.261719 C 197.515625 63.039062 189.195312 54.71875 178.972656 54.71875 C 168.746094 54.707031 160.425781 63.027344 160.425781 73.261719 Z M 193.960938 73.261719 C 193.960938 81.523438 187.246094 88.242188 178.984375 88.242188 C 170.722656 88.242188 164.003906 81.523438 164.003906 73.261719 C 164.003906 65 170.722656 58.285156 178.984375 58.285156 C 187.234375 58.273438 193.960938 65 193.960938 73.261719 Z M 303.601562 108.285156 C 293.378906 108.285156 285.058594 116.605469 285.058594 126.828125 C 285.058594 137.054688 293.378906 145.375 303.601562 145.375 C 313.828125 145.375 322.148438 137.054688 322.148438 126.828125 C 322.148438 116.605469 313.828125 108.285156 303.601562 108.285156 Z M 303.601562 141.808594 C 295.339844 141.808594 288.625 135.089844 288.625 126.828125 C 288.625 118.566406 295.339844 111.851562 303.601562 111.851562 C 311.863281 111.851562 318.582031 118.566406 318.582031 126.828125 C 318.582031 135.089844 311.863281 141.808594 303.601562 141.808594 Z M 251.152344 126.828125 C 251.152344 120.671875 246.136719 115.65625 239.980469 115.65625 C 233.820312 115.65625 228.804688 120.671875 228.804688 126.828125 C 228.804688 132.988281 233.820312 138.003906 239.980469 138.003906 C 246.136719 138.003906 251.152344 132.988281 251.152344 126.828125 Z M 239.992188 134.4375 C 235.796875 134.4375 232.382812 131.027344 232.382812 126.828125 C 232.382812 122.632812 235.796875 119.222656 239.992188 119.222656 C 244.1875 119.222656 247.597656 122.632812 247.597656 126.828125 C 247.597656 131.027344 244.175781 134.4375 239.992188 134.4375 Z M -42.070312 108.285156 C -52.292969 108.285156 -60.617188 116.605469 -60.617188 126.828125 C -60.617188 137.054688 -52.292969 145.375 -42.070312 145.375 C -31.847656 145.375 -23.527344 137.054688 -23.527344 126.828125 C -23.527344 116.605469 -31.835938 108.285156 -42.070312 108.285156 Z M -42.070312 141.808594 C -50.332031 141.808594 -57.050781 135.089844 -57.050781 126.828125 C -57.050781 118.566406 -50.332031 111.851562 -42.070312 111.851562 C -33.808594 111.851562 -27.09375 118.566406 -27.09375 126.828125 C -27.09375 135.089844 -33.808594 141.808594 -42.070312 141.808594 Z M 169.425781 145.375 C 174.382812 145.375 179.03125 143.449219 182.539062 139.941406 C 189.765625 132.714844 189.765625 120.945312 182.539062 113.707031 C 179.03125 110.199219 174.371094 108.273438 169.425781 108.273438 L 25.214844 108.273438 C 20.257812 108.273438 15.597656 110.199219 12.101562 113.707031 C 4.875 120.933594 4.875 132.703125 12.101562 139.929688 C 15.609375 143.4375 20.269531 145.363281 25.214844 145.363281 L 169.425781 145.363281 Z M 14.609375 116.238281 C 17.441406 113.40625 21.207031 111.851562 25.203125 111.851562 L 169.414062 111.851562 C 173.417969 111.851562 177.175781 113.40625 180.003906 116.238281 C 185.84375 122.074219 185.84375 131.585938 180.003906 137.421875 C 177.175781 140.25 173.417969 141.808594 169.414062 141.808594 L 25.214844 141.808594 C 21.207031 141.808594 17.453125 140.25 14.621094 137.421875 C 8.773438 131.585938 8.773438 122.074219 14.609375 116.238281 Z M 258.84375 226.367188 C 252.6875 226.367188 247.671875 231.382812 247.671875 237.539062 C 247.671875 243.699219 252.6875 248.714844 258.84375 248.714844 C 265.003906 248.714844 270.019531 243.710938 270.019531 237.539062 C 270.019531 231.371094 265.003906 226.367188 258.84375 226.367188 Z M 258.84375 245.136719 C 254.648438 245.136719 251.238281 241.726562 251.238281 237.527344 C 251.238281 233.332031 254.648438 229.921875 258.84375 229.921875 C 263.042969 229.921875 266.453125 233.332031 266.453125 237.527344 C 266.453125 241.726562 263.03125 245.136719 258.84375 245.136719 Z M 195.222656 218.984375 C 185 218.984375 176.675781 227.304688 176.675781 237.527344 C 176.675781 247.753906 185 256.074219 195.222656 256.074219 C 205.445312 256.074219 213.765625 247.753906 213.765625 237.527344 C 213.765625 227.304688 205.445312 218.984375 195.222656 218.984375 Z M 195.222656 252.519531 C 186.960938 252.519531 180.242188 245.800781 180.242188 237.539062 C 180.242188 229.277344 186.960938 222.5625 195.222656 222.5625 C 203.484375 222.5625 210.199219 229.277344 210.199219 237.539062 C 210.199219 245.789062 203.484375 252.519531 195.222656 252.519531 Z M 124.65625 218.984375 L 46.828125 218.984375 C 41.871094 218.984375 37.210938 220.910156 33.714844 224.417969 C 26.488281 231.644531 26.488281 243.414062 33.714844 250.640625 C 37.222656 254.148438 41.871094 256.074219 46.828125 256.074219 L 124.65625 256.074219 C 129.613281 256.074219 134.273438 254.148438 137.769531 250.640625 C 144.996094 243.414062 144.996094 231.644531 137.769531 224.40625 C 134.273438 220.921875 129.613281 218.984375 124.65625 218.984375 Z M 135.261719 248.132812 C 132.429688 250.960938 128.675781 252.519531 124.667969 252.519531 L 46.828125 252.519531 C 42.820312 252.519531 39.0625 250.960938 36.234375 248.132812 C 30.398438 242.296875 30.398438 232.785156 36.234375 226.949219 C 39.0625 224.117188 42.820312 222.5625 46.828125 222.5625 L 124.65625 222.5625 C 128.660156 222.5625 132.417969 224.117188 135.246094 226.949219 C 141.097656 232.785156 141.097656 242.285156 135.261719 248.132812 Z M 46.148438 180.394531 C 46.148438 174.238281 41.132812 169.222656 34.972656 169.222656 C 28.816406 169.222656 23.800781 174.238281 23.800781 180.394531 C 23.800781 186.554688 28.816406 191.570312 34.972656 191.570312 C 41.132812 191.570312 46.148438 186.554688 46.148438 180.394531 Z M 27.367188 180.394531 C 27.367188 176.199219 30.777344 172.789062 34.972656 172.789062 C 39.171875 172.789062 42.582031 176.199219 42.582031 180.394531 C 42.582031 184.59375 39.171875 188.003906 34.972656 188.003906 C 30.777344 188.003906 27.367188 184.59375 27.367188 180.394531 Z M 80.039062 180.394531 C 80.039062 190.621094 88.363281 198.941406 98.585938 198.941406 C 108.808594 198.941406 117.132812 190.621094 117.132812 180.394531 C 117.132812 170.171875 108.808594 161.851562 98.585938 161.851562 C 88.363281 161.851562 80.039062 170.171875 80.039062 180.394531 Z M 113.578125 180.394531 C 113.578125 188.65625 106.859375 195.375 98.597656 195.375 C 90.335938 195.375 83.621094 188.65625 83.621094 180.394531 C 83.621094 172.132812 90.335938 165.417969 98.597656 165.417969 C 106.859375 165.417969 113.578125 172.132812 113.578125 180.394531 Z M 208.917969 161.851562 L 169.152344 161.851562 C 164.195312 161.851562 159.546875 163.777344 156.039062 167.285156 C 148.8125 174.511719 148.8125 186.28125 156.039062 193.507812 C 159.546875 197.015625 164.207031 198.941406 169.152344 198.941406 L 208.917969 198.941406 C 213.875 198.941406 218.523438 197.015625 222.027344 193.507812 C 229.257812 186.28125 229.257812 174.511719 222.027344 167.285156 C 218.535156 163.777344 213.875 161.851562 208.917969 161.851562 Z M 219.507812 190.988281 C 216.679688 193.816406 212.921875 195.375 208.917969 195.375 L 169.152344 195.375 C 165.144531 195.375 161.390625 193.816406 158.558594 190.988281 C 152.722656 185.152344 152.722656 175.640625 158.558594 169.804688 C 161.390625 166.972656 165.144531 165.417969 169.152344 165.417969 L 208.917969 165.417969 C 212.921875 165.417969 216.679688 166.972656 219.507812 169.804688 C 225.359375 175.640625 225.359375 185.152344 219.507812 190.988281 Z M 26.84375 20.875 C 26.84375 10.648438 18.523438 2.328125 8.296875 2.328125 C -1.925781 2.328125 -10.246094 10.648438 -10.246094 20.875 C -10.246094 31.097656 -1.925781 39.417969 8.296875 39.417969 C 18.523438 39.417969 26.84375 31.109375 26.84375 20.875 Z M -6.679688 20.875 C -6.679688 12.609375 0.0351562 5.894531 8.296875 5.894531 C 16.558594 5.894531 23.277344 12.609375 23.277344 20.875 C 23.277344 29.136719 16.558594 35.851562 8.296875 35.851562 C 0.0351562 35.851562 -6.679688 29.136719 -6.679688 20.875 Z M 71.921875 32.046875 C 78.078125 32.046875 83.097656 27.03125 83.097656 20.875 C 83.097656 14.714844 78.078125 9.699219 71.921875 9.699219 C 65.765625 9.699219 60.746094 14.714844 60.746094 20.875 C 60.746094 27.03125 65.75 32.046875 71.921875 32.046875 Z M 71.921875 13.265625 C 76.117188 13.265625 79.53125 16.675781 79.53125 20.875 C 79.53125 25.070312 76.117188 28.480469 71.921875 28.480469 C 67.726562 28.480469 64.3125 25.070312 64.3125 20.875 C 64.3125 16.675781 67.726562 13.265625 71.921875 13.265625 Z M 142.476562 39.417969 L 235.59375 39.417969 C 240.550781 39.417969 245.210938 37.492188 248.707031 33.984375 C 255.933594 26.757812 255.933594 14.988281 248.707031 7.761719 C 245.210938 4.253906 240.550781 2.328125 235.59375 2.328125 L 142.476562 2.328125 C 137.519531 2.328125 132.859375 4.253906 129.363281 7.761719 C 125.855469 11.269531 123.929688 15.914062 123.929688 20.875 C 123.929688 25.832031 125.855469 30.492188 129.363281 33.984375 C 132.871094 37.492188 137.519531 39.417969 142.476562 39.417969 Z M 131.882812 10.28125 C 134.714844 7.453125 138.46875 5.894531 142.476562 5.894531 L 235.59375 5.894531 C 239.597656 5.894531 243.355469 7.453125 246.183594 10.28125 C 252.023438 16.117188 252.023438 25.628906 246.183594 31.464844 C 243.355469 34.292969 239.585938 35.851562 235.59375 35.851562 L 142.476562 35.851562 C 138.46875 35.851562 134.714844 34.292969 131.882812 31.464844 C 126.046875 25.628906 126.046875 16.117188 131.882812 10.28125 Z M 131.882812 10.28125 " fill-opacity="1" fill-rule="nonzero"/></g></g></g></g><g clip-path="url(#f43ae92739)"><g clip-path="url(#098c6f84df)"><path fill="url(#c6973f4713)" d="M 288.011719 330.675781 L 288.011719 477.640625 L 409.046875 477.640625 L 409.046875 330.675781 Z M 288.011719 330.675781 " fill-rule="nonzero"/></g></g><path fill="#ffffff" d="M 474.621094 453.832031 L 441.503906 453.832031 L 441.503906 379.113281 L 474.050781 379.113281 C 488.09375 379.113281 496.90625 386.3125 496.90625 397.753906 C 496.90625 405.933594 490.789062 412.769531 482.859375 413.960938 L 482.859375 414.375 C 493.019531 415.152344 500.480469 422.554688 500.480469 432.445312 C 500.480469 445.597656 490.582031 453.832031 474.621094 453.832031 Z M 457.15625 390.765625 L 457.15625 410.179688 L 468.402344 410.179688 C 476.746094 410.179688 481.511719 406.503906 481.511719 400.1875 C 481.511719 394.183594 477.316406 390.765625 470.007812 390.765625 Z M 457.15625 442.179688 L 470.628906 442.179688 C 479.648438 442.179688 484.519531 438.347656 484.519531 431.203125 C 484.519531 424.214844 479.492188 420.484375 470.265625 420.484375 L 457.15625 420.484375 Z M 509.347656 453.832031 L 509.347656 379.113281 L 524.480469 379.113281 L 524.480469 453.832031 Z M 557.03125 443.785156 C 563.613281 443.785156 569.054688 439.488281 569.054688 433.480469 L 569.054688 429.441406 L 557.34375 430.167969 C 551.695312 430.582031 548.480469 433.117188 548.480469 437.054688 C 548.480469 441.195312 551.902344 443.785156 557.03125 443.785156 Z M 552.058594 454.710938 C 541.484375 454.710938 533.453125 447.875 533.453125 437.882812 C 533.453125 427.785156 541.226562 421.933594 555.0625 421.105469 L 569.054688 420.277344 L 569.054688 416.601562 C 569.054688 411.421875 565.429688 408.421875 559.726562 408.421875 C 554.078125 408.421875 550.503906 411.21875 549.777344 415.308594 L 535.9375 415.308594 C 536.507812 404.539062 545.683594 397.132812 560.402344 397.132812 C 574.652344 397.132812 583.929688 404.484375 583.929688 415.667969 L 583.929688 453.832031 L 569.316406 453.832031 L 569.316406 445.339844 L 569.003906 445.339844 C 565.894531 451.242188 559.003906 454.710938 552.058594 454.710938 Z M 593.261719 453.832031 L 593.261719 445.234375 L 620.9375 410.179688 L 620.9375 409.871094 L 593.679688 409.871094 L 593.679688 398.324219 L 638.507812 398.324219 L 638.507812 407.902344 L 612.492188 441.972656 L 612.492188 442.230469 L 639.128906 442.230469 L 639.128906 453.832031 Z M 672.769531 408.316406 C 666.136719 408.316406 661.367188 413.339844 660.847656 420.277344 L 684.429688 420.277344 C 684.121094 413.183594 679.507812 408.316406 672.769531 408.316406 Z M 684.636719 436.847656 L 698.527344 436.847656 C 696.871094 447.71875 686.917969 455.019531 673.183594 455.019531 C 656.082031 455.019531 645.816406 444.09375 645.816406 426.335938 C 645.816406 408.628906 656.183594 397.132812 672.613281 397.132812 C 688.785156 397.132812 698.992188 408.058594 698.992188 424.9375 L 698.992188 429.546875 L 660.695312 429.546875 L 660.695312 430.476562 C 660.695312 438.398438 665.71875 443.835938 673.441406 443.835938 C 678.988281 443.835938 683.238281 441.09375 684.636719 436.847656 Z M 764.042969 453.832031 L 730.925781 453.832031 L 730.925781 379.113281 L 763.472656 379.113281 C 777.519531 379.113281 786.328125 386.3125 786.328125 397.753906 C 786.328125 405.933594 780.214844 412.769531 772.28125 413.960938 L 772.28125 414.375 C 782.441406 415.152344 789.90625 422.554688 789.90625 432.445312 C 789.90625 445.597656 780.007812 453.832031 764.042969 453.832031 Z M 746.578125 390.765625 L 746.578125 410.179688 L 757.824219 410.179688 C 766.171875 410.179688 770.9375 406.503906 770.9375 400.1875 C 770.9375 394.183594 766.738281 390.765625 759.433594 390.765625 Z M 746.578125 442.179688 L 760.054688 442.179688 C 769.070312 442.179688 773.941406 438.347656 773.941406 431.203125 C 773.941406 424.214844 768.917969 420.484375 759.6875 420.484375 L 746.578125 420.484375 Z M 849.71875 398.324219 L 849.71875 453.832031 L 835.101562 453.832031 L 835.101562 443.835938 L 834.792969 443.835938 C 832.046875 450.828125 826.550781 454.867188 818.152344 454.867188 C 806.128906 454.867188 798.148438 447.046875 798.148438 434.101562 L 798.148438 398.324219 L 813.28125 398.324219 L 813.28125 430.945312 C 813.28125 438.347656 816.960938 442.285156 823.648438 442.285156 C 830.386719 442.285156 834.585938 437.46875 834.585938 430.117188 L 834.585938 398.324219 Z M 859.515625 414.632812 C 859.515625 404.070312 868.6875 397.132812 882.941406 397.132812 C 896.882812 397.132812 905.953125 404.175781 906.160156 414.945312 L 892.21875 414.945312 C 891.90625 410.492188 888.332031 407.746094 882.734375 407.746094 C 877.5 407.746094 874.082031 410.128906 874.082031 413.703125 C 874.082031 416.445312 876.464844 418.308594 881.335938 419.449219 L 891.960938 421.726562 C 903.101562 424.214844 907.609375 428.613281 907.609375 436.898438 C 907.609375 447.824219 897.554688 455.019531 882.890625 455.019531 C 868.066406 455.019531 858.945312 447.875 858.117188 437.054688 L 872.886719 437.054688 C 873.613281 441.714844 877.292969 444.40625 883.304688 444.40625 C 889.058594 444.40625 892.53125 442.128906 892.53125 438.503906 C 892.53125 435.707031 890.664062 434.15625 885.691406 432.964844 L 875.425781 430.683594 C 864.90625 428.304688 859.515625 422.816406 859.515625 414.632812 Z M 920.105469 385.535156 L 935.238281 385.535156 L 935.238281 398.324219 L 945.503906 398.324219 L 945.503906 409.714844 L 935.238281 409.714844 L 935.238281 436.277344 C 935.238281 440.523438 937.3125 442.542969 941.769531 442.542969 C 943.117188 442.542969 944.515625 442.4375 945.449219 442.285156 L 945.449219 453.414062 C 943.894531 453.777344 941.304688 454.035156 938.246094 454.035156 C 925.183594 454.035156 920.105469 449.6875 920.105469 438.867188 L 920.105469 409.714844 L 912.28125 409.714844 L 912.28125 398.324219 L 920.105469 398.324219 Z M 978.777344 408.316406 C 972.144531 408.316406 967.375 413.339844 966.855469 420.277344 L 990.4375 420.277344 C 990.128906 413.183594 985.515625 408.316406 978.777344 408.316406 Z M 990.644531 436.847656 L 1004.535156 436.847656 C 1002.878906 447.71875 992.925781 455.019531 979.191406 455.019531 C 962.089844 455.019531 951.828125 444.09375 951.828125 426.335938 C 951.828125 408.628906 962.191406 397.132812 978.621094 397.132812 C 994.792969 397.132812 1005 408.058594 1005 424.9375 L 1005 429.546875 L 966.703125 429.546875 L 966.703125 430.476562 C 966.703125 438.398438 971.726562 443.835938 979.449219 443.835938 C 984.996094 443.835938 989.246094 441.09375 990.644531 436.847656 Z M 1013.710938 453.832031 L 1013.710938 398.324219 L 1028.328125 398.324219 L 1028.328125 408.316406 L 1028.636719 408.316406 C 1030.609375 401.273438 1035.324219 397.445312 1041.855469 397.445312 C 1043.617188 397.445312 1045.121094 397.703125 1046.15625 398.011719 L 1046.15625 411.320312 C 1044.910156 410.800781 1042.839844 410.441406 1040.664062 410.441406 C 1033.199219 410.441406 1028.847656 414.996094 1028.847656 422.816406 L 1028.847656 453.832031 Z M 1013.710938 453.832031 " fill-opacity="1" fill-rule="nonzero"/><path fill="#ffffff" d="M 1095.449219 404.644531 L 1091.445312 391.425781 L 1091.160156 391.425781 L 1087.152344 404.644531 Z M 1115.316406 390.253906 L 1115.316406 400.816406 L 1120.949219 400.816406 C 1124.550781 400.816406 1126.777344 399.09375 1126.777344 395.636719 C 1126.777344 392.152344 1124.472656 390.253906 1121.046875 390.253906 Z M 1115.316406 390.253906 " fill-opacity="1" fill-rule="nonzero"/><path fill="#ffffff" d="M 1062.554688 379.722656 C 1062.554688 376.832031 1063.703125 374.058594 1065.75 372.015625 C 1067.792969 369.96875 1070.566406 368.824219 1073.464844 368.824219 L 1138.914062 368.824219 C 1141.808594 368.824219 1144.585938 369.96875 1146.628906 372.015625 C 1148.675781 374.058594 1149.824219 376.832031 1149.824219 379.722656 L 1149.824219 423.316406 C 1149.824219 426.207031 1148.675781 428.980469 1146.628906 431.023438 C 1144.585938 433.066406 1141.808594 434.214844 1138.914062 434.214844 L 1073.464844 434.214844 C 1070.566406 434.214844 1067.792969 433.066406 1065.75 431.023438 C 1063.703125 428.980469 1062.554688 426.207031 1062.554688 423.316406 Z M 1085.816406 409.464844 L 1096.746094 409.464844 L 1099.3125 417.867188 L 1106.1875 417.867188 L 1095.257812 385.175781 L 1087.683594 385.175781 L 1076.707031 417.867188 L 1083.25 417.867188 Z M 1108.917969 385.171875 L 1108.917969 417.867188 L 1115.316406 417.867188 L 1115.316406 405.675781 L 1121.117188 405.675781 L 1126.84375 417.867188 L 1134.082031 417.867188 L 1127.515625 404.695312 C 1130.488281 403.550781 1133.460938 400.3125 1133.460938 395.523438 C 1133.460938 389.273438 1129.242188 385.171875 1121.980469 385.171875 Z M 1108.917969 385.171875 " fill-opacity="1" fill-rule="nonzero"/></svg>