<svg xmlns="http://www.w3.org/2000/svg" xmlns:xlink="http://www.w3.org/1999/xlink" width="1920" zoomAndPan="magnify" viewBox="0 0 1440 809.999993" height="1080" preserveAspectRatio="xMidYMid meet" version="1.0"><defs><g/></defs><rect x="-144" width="1728" fill="#ffffff" y="-80.999999" height="971.999992" fill-opacity="1"/><rect x="-144" width="1728" fill="#a1e8ff" y="-80.999999" height="971.999992" fill-opacity="1"/><g fill="#000000" fill-opacity="1"><g transform="translate(283.994069, 460.124997)"><g><path d="M 16.203125 -125.984375 L 43.203125 -125.984375 L 43.203125 -76.5 L 97.1875 -76.5 L 97.1875 -125.984375 L 124.1875 -125.984375 L 124.1875 0 L 97.1875 0 L 97.1875 -51.296875 L 43.203125 -51.296875 L 43.203125 0 L 16.203125 0 Z M 16.203125 -125.984375 "/></g></g></g><g fill="#000000" fill-opacity="1"><g transform="translate(415.376804, 460.124997)"><g><path d="M 53.09375 1.796875 C 46.613281 1.796875 40.523438 0.597656 34.828125 -1.796875 C 29.128906 -4.203125 24.148438 -7.503906 19.890625 -11.703125 C 15.628906 -15.898438 12.296875 -20.757812 9.890625 -26.28125 C 7.492188 -31.800781 6.296875 -37.738281 6.296875 -44.09375 C 6.296875 -50.332031 7.492188 -56.238281 9.890625 -61.8125 C 12.296875 -67.394531 15.628906 -72.285156 19.890625 -76.484375 C 24.148438 -80.691406 29.128906 -83.992188 34.828125 -86.390625 C 40.523438 -88.785156 46.613281 -89.984375 53.09375 -89.984375 C 59.570312 -89.984375 65.660156 -88.785156 71.359375 -86.390625 C 77.054688 -83.992188 82.035156 -80.691406 86.296875 -76.484375 C 90.554688 -72.285156 93.882812 -67.394531 96.28125 -61.8125 C 98.6875 -56.238281 99.890625 -50.332031 99.890625 -44.09375 C 99.890625 -37.738281 98.6875 -31.800781 96.28125 -26.28125 C 93.882812 -20.757812 90.554688 -15.898438 86.296875 -11.703125 C 82.035156 -7.503906 77.054688 -4.203125 71.359375 -1.796875 C 65.660156 0.597656 59.570312 1.796875 53.09375 1.796875 Z M 53.09375 -20.703125 C 56.21875 -20.703125 59.15625 -21.300781 61.90625 -22.5 C 64.664062 -23.695312 67.066406 -25.316406 69.109375 -27.359375 C 71.148438 -29.398438 72.738281 -31.859375 73.875 -34.734375 C 75.019531 -37.617188 75.59375 -40.738281 75.59375 -44.09375 C 75.59375 -47.457031 75.019531 -50.578125 73.875 -53.453125 C 72.738281 -56.335938 71.148438 -58.796875 69.109375 -60.828125 C 67.066406 -62.867188 64.664062 -64.488281 61.90625 -65.6875 C 59.15625 -66.894531 56.21875 -67.5 53.09375 -67.5 C 49.976562 -67.5 47.039062 -66.894531 44.28125 -65.6875 C 41.519531 -64.488281 39.117188 -62.867188 37.078125 -60.828125 C 35.035156 -58.796875 33.441406 -56.335938 32.296875 -53.453125 C 31.160156 -50.578125 30.59375 -47.457031 30.59375 -44.09375 C 30.59375 -40.738281 31.160156 -37.617188 32.296875 -34.734375 C 33.441406 -31.859375 35.035156 -29.398438 37.078125 -27.359375 C 39.117188 -25.316406 41.519531 -23.695312 44.28125 -22.5 C 47.039062 -21.300781 49.976562 -20.703125 53.09375 -20.703125 Z M 53.09375 -20.703125 "/></g></g></g><g fill="#000000" fill-opacity="1"><g transform="translate(512.563975, 460.124997)"><g><path d="M 65.6875 1.796875 C 60.894531 1.796875 56.785156 1.046875 53.359375 -0.453125 C 49.941406 -1.953125 47.035156 -3.601562 44.640625 -5.40625 C 41.878906 -7.5625 39.597656 -9.957031 37.796875 -12.59375 L 36.890625 -12.59375 L 36.890625 0 L 12.59375 0 L 12.59375 -125.984375 L 36.890625 -125.984375 L 36.890625 -75.59375 L 37.796875 -75.59375 C 39.597656 -78.226562 41.878906 -80.628906 44.640625 -82.796875 C 47.035156 -84.597656 49.941406 -86.242188 53.359375 -87.734375 C 56.785156 -89.234375 60.894531 -89.984375 65.6875 -89.984375 C 70.851562 -89.984375 75.832031 -88.84375 80.625 -86.5625 C 85.425781 -84.289062 89.65625 -81.144531 93.3125 -77.125 C 96.976562 -73.101562 99.890625 -68.269531 102.046875 -62.625 C 104.210938 -56.988281 105.296875 -50.8125 105.296875 -44.09375 C 105.296875 -37.375 104.210938 -31.191406 102.046875 -25.546875 C 99.890625 -19.910156 96.976562 -15.050781 93.3125 -10.96875 C 89.65625 -6.894531 85.425781 -3.75 80.625 -1.53125 C 75.832031 0.6875 70.851562 1.796875 65.6875 1.796875 Z M 58.5 -20.703125 C 61.613281 -20.703125 64.550781 -21.300781 67.3125 -22.5 C 70.070312 -23.695312 72.472656 -25.316406 74.515625 -27.359375 C 76.554688 -29.398438 78.144531 -31.859375 79.28125 -34.734375 C 80.425781 -37.617188 81 -40.738281 81 -44.09375 C 81 -47.457031 80.425781 -50.578125 79.28125 -53.453125 C 78.144531 -56.335938 76.554688 -58.796875 74.515625 -60.828125 C 72.472656 -62.867188 70.070312 -64.488281 67.3125 -65.6875 C 64.550781 -66.894531 61.613281 -67.5 58.5 -67.5 C 55.375 -67.5 52.429688 -66.894531 49.671875 -65.6875 C 46.910156 -64.488281 44.507812 -62.867188 42.46875 -60.828125 C 40.4375 -58.796875 38.847656 -56.335938 37.703125 -53.453125 C 36.566406 -50.578125 36 -47.457031 36 -44.09375 C 36 -40.738281 36.566406 -37.617188 37.703125 -34.734375 C 38.847656 -31.859375 40.4375 -29.398438 42.46875 -27.359375 C 44.507812 -25.316406 46.910156 -23.695312 49.671875 -22.5 C 52.429688 -21.300781 55.375 -20.703125 58.5 -20.703125 Z M 58.5 -20.703125 "/></g></g></g><g fill="#000000" fill-opacity="1"><g transform="translate(615.150457, 460.124997)"><g><path d="M 65.6875 1.796875 C 60.894531 1.796875 56.785156 1.046875 53.359375 -0.453125 C 49.941406 -1.953125 47.035156 -3.601562 44.640625 -5.40625 C 41.878906 -7.5625 39.597656 -9.957031 37.796875 -12.59375 L 36.890625 -12.59375 L 36.890625 0 L 12.59375 0 L 12.59375 -125.984375 L 36.890625 -125.984375 L 36.890625 -75.59375 L 37.796875 -75.59375 C 39.597656 -78.226562 41.878906 -80.628906 44.640625 -82.796875 C 47.035156 -84.597656 49.941406 -86.242188 53.359375 -87.734375 C 56.785156 -89.234375 60.894531 -89.984375 65.6875 -89.984375 C 70.851562 -89.984375 75.832031 -88.84375 80.625 -86.5625 C 85.425781 -84.289062 89.65625 -81.144531 93.3125 -77.125 C 96.976562 -73.101562 99.890625 -68.269531 102.046875 -62.625 C 104.210938 -56.988281 105.296875 -50.8125 105.296875 -44.09375 C 105.296875 -37.375 104.210938 -31.191406 102.046875 -25.546875 C 99.890625 -19.910156 96.976562 -15.050781 93.3125 -10.96875 C 89.65625 -6.894531 85.425781 -3.75 80.625 -1.53125 C 75.832031 0.6875 70.851562 1.796875 65.6875 1.796875 Z M 58.5 -20.703125 C 61.613281 -20.703125 64.550781 -21.300781 67.3125 -22.5 C 70.070312 -23.695312 72.472656 -25.316406 74.515625 -27.359375 C 76.554688 -29.398438 78.144531 -31.859375 79.28125 -34.734375 C 80.425781 -37.617188 81 -40.738281 81 -44.09375 C 81 -47.457031 80.425781 -50.578125 79.28125 -53.453125 C 78.144531 -56.335938 76.554688 -58.796875 74.515625 -60.828125 C 72.472656 -62.867188 70.070312 -64.488281 67.3125 -65.6875 C 64.550781 -66.894531 61.613281 -67.5 58.5 -67.5 C 55.375 -67.5 52.429688 -66.894531 49.671875 -65.6875 C 46.910156 -64.488281 44.507812 -62.867188 42.46875 -60.828125 C 40.4375 -58.796875 38.847656 -56.335938 37.703125 -53.453125 C 36.566406 -50.578125 36 -47.457031 36 -44.09375 C 36 -40.738281 36.566406 -37.617188 37.703125 -34.734375 C 38.847656 -31.859375 40.4375 -29.398438 42.46875 -27.359375 C 44.507812 -25.316406 46.910156 -23.695312 49.671875 -22.5 C 52.429688 -21.300781 55.375 -20.703125 58.5 -20.703125 Z M 58.5 -20.703125 "/></g></g></g><g fill="#000000" fill-opacity="1"><g transform="translate(717.736938, 460.124997)"><g><path d="M 22.5 37.796875 C 20.21875 37.796875 18.085938 37.675781 16.109375 37.4375 C 14.128906 37.195312 12.421875 36.894531 10.984375 36.53125 C 9.296875 36.050781 7.734375 35.570312 6.296875 35.09375 L 6.296875 12.59375 C 7.140625 12.957031 8.097656 13.257812 9.171875 13.5 C 11.210938 14.101562 13.554688 14.40625 16.203125 14.40625 C 20.273438 14.40625 23.507812 13.382812 25.90625 11.34375 C 28.3125 9.300781 30.175781 6.71875 31.5 3.59375 L 33.296875 -0.90625 L -0.90625 -88.1875 L 25.203125 -88.1875 L 45.890625 -29.703125 L 46.796875 -29.703125 L 66.59375 -88.1875 L 92.6875 -88.1875 L 56.6875 7.203125 C 52.96875 17.160156 48.378906 24.75 42.921875 29.96875 C 37.460938 35.1875 30.65625 37.796875 22.5 37.796875 Z M 22.5 37.796875 "/></g></g></g><g fill="#000000" fill-opacity="1"><g transform="translate(800.526012, 460.124997)"><g><path d="M 16.203125 -125.984375 L 43.203125 -125.984375 L 43.203125 -76.5 L 97.1875 -76.5 L 97.1875 -125.984375 L 124.1875 -125.984375 L 124.1875 0 L 97.1875 0 L 97.1875 -51.296875 L 43.203125 -51.296875 L 43.203125 0 L 16.203125 0 Z M 16.203125 -125.984375 "/></g></g></g><g fill="#000000" fill-opacity="1"><g transform="translate(931.908755, 460.124997)"><g><path d="M 11.703125 -88.1875 L 36 -88.1875 L 36 0 L 11.703125 0 Z M 23.765625 -99.890625 C 19.921875 -99.890625 16.648438 -101.238281 13.953125 -103.9375 C 11.253906 -106.632812 9.90625 -109.785156 9.90625 -113.390625 C 9.90625 -116.992188 11.28125 -120.144531 14.03125 -122.84375 C 16.789062 -125.539062 20.09375 -126.890625 23.9375 -126.890625 C 27.78125 -126.890625 31.050781 -125.539062 33.75 -122.84375 C 36.445312 -120.144531 37.796875 -116.992188 37.796875 -113.390625 C 37.796875 -109.785156 36.414062 -106.632812 33.65625 -103.9375 C 30.894531 -101.238281 27.597656 -99.890625 23.765625 -99.890625 Z M 23.765625 -99.890625 "/></g></g></g><g fill="#000000" fill-opacity="1"><g transform="translate(970.603562, 460.124997)"><g><path d="M -0.90625 -88.1875 L 25.203125 -88.1875 L 45.53125 -28.796875 L 46.25 -28.796875 L 66.59375 -88.1875 L 92.6875 -88.1875 L 59.390625 0 L 32.390625 0 Z M -0.90625 -88.1875 "/></g></g></g><g fill="#000000" fill-opacity="1"><g transform="translate(1053.39259, 460.124997)"><g><path d="M 53.09375 1.796875 C 46.613281 1.796875 40.523438 0.597656 34.828125 -1.796875 C 29.128906 -4.203125 24.148438 -7.503906 19.890625 -11.703125 C 15.628906 -15.898438 12.296875 -20.757812 9.890625 -26.28125 C 7.492188 -31.800781 6.296875 -37.738281 6.296875 -44.09375 C 6.296875 -50.332031 7.492188 -56.238281 9.890625 -61.8125 C 12.296875 -67.394531 15.597656 -72.285156 19.796875 -76.484375 C 23.992188 -80.691406 28.851562 -83.992188 34.375 -86.390625 C 39.894531 -88.785156 45.835938 -89.984375 52.203125 -89.984375 C 58.316406 -89.984375 64.039062 -88.8125 69.375 -86.46875 C 74.71875 -84.132812 79.367188 -80.988281 83.328125 -77.03125 C 87.285156 -73.070312 90.4375 -68.421875 92.78125 -63.078125 C 95.125 -57.742188 96.296875 -52.015625 96.296875 -45.890625 C 96.296875 -44.210938 96.234375 -42.742188 96.109375 -41.484375 C 95.992188 -40.222656 95.875 -39.113281 95.75 -38.15625 C 95.632812 -36.957031 95.515625 -35.9375 95.390625 -35.09375 L 31.5 -35.09375 C 32.820312 -31.019531 35.367188 -27.453125 39.140625 -24.390625 C 42.921875 -21.328125 48.171875 -19.796875 54.890625 -19.796875 C 58.734375 -19.796875 62.09375 -20.273438 64.96875 -21.234375 C 67.851562 -22.191406 70.316406 -23.332031 72.359375 -24.65625 C 74.628906 -26.09375 76.609375 -27.773438 78.296875 -29.703125 L 90.890625 -12.59375 C 88.253906 -9.957031 85.015625 -7.5625 81.171875 -5.40625 C 77.929688 -3.601562 73.972656 -1.953125 69.296875 -0.453125 C 64.617188 1.046875 59.21875 1.796875 53.09375 1.796875 Z M 71.09375 -53.09375 C 69.769531 -57.175781 67.398438 -60.742188 63.984375 -63.796875 C 60.566406 -66.859375 56.335938 -68.390625 51.296875 -68.390625 C 46.253906 -68.390625 42.023438 -66.859375 38.609375 -63.796875 C 35.191406 -60.742188 32.820312 -57.175781 31.5 -53.09375 Z M 71.09375 -53.09375 "/></g></g></g></svg>